<svg width="30" height="31" viewBox="0 0 30 31" fill="none" xmlns="http://www.w3.org/2000/svg">
<path fill-rule="evenodd" clip-rule="evenodd" d="M8.08805 3.00216L8.12133 3.00431C8.77619 3.05858 9.34496 3.38402 9.86416 3.89131C10.8508 4.85498 12.9696 7.66708 13.1295 8.43238C13.3066 9.28614 13.1173 9.84065 12.553 10.8216L12.4162 11.0633C12.1573 11.5362 12.1177 11.7315 12.1979 11.9551C13.4299 14.9704 15.5324 17.0725 18.5132 18.29C18.7955 18.3922 19.0086 18.3336 19.6052 17.9914L19.9165 17.8153C20.7552 17.3553 21.2868 17.2099 22.0706 17.3731C22.8333 17.5329 25.647 19.653 26.6092 20.6384C27.1158 21.1571 27.4419 21.7269 27.4987 22.4249C27.5586 24.1214 25.4885 26.5102 24.2257 27.2285C22.7896 28.2557 20.9671 28.2387 18.9237 27.2876C13.5801 25.0641 5.40625 16.9424 3.22798 11.6054L3.09758 11.3069C2.27046 9.32998 2.28839 7.62207 3.23623 6.33448C4.1011 4.9022 6.43293 2.92561 8.08805 3.00216ZM7.98703 4.82997L7.87683 4.83562C7.02733 4.94847 5.32378 6.41509 4.75646 7.34793L4.65846 7.49377C4.16973 8.29006 4.22637 9.38359 4.9068 10.8809L5.03684 11.1853C7.23125 16.1103 14.8291 23.6027 19.6604 25.6139L19.9266 25.7323C21.3244 26.3248 22.3825 26.2985 23.2392 25.691L23.3025 25.6503C23.5676 25.4661 24.1789 24.9106 24.6498 24.3673C25.3111 23.6042 25.6857 22.9049 25.6736 22.5327C25.6604 22.3735 25.5376 22.1589 25.3009 21.9165C24.5856 21.184 21.9842 19.2239 21.6967 19.1636C21.4249 19.107 21.2017 19.1831 20.5915 19.5341L20.2845 19.7066C19.3855 20.1914 18.7518 20.3217 17.8564 19.9966C14.3864 18.5803 11.9229 16.1172 10.4916 12.6123C10.1526 11.6751 10.3351 11.0121 10.9246 9.98455L11.0651 9.73741C11.3329 9.25382 11.3896 9.04864 11.3392 8.80525C11.2787 8.51618 9.31987 5.91627 8.58635 5.19986C8.34345 4.96253 8.13003 4.84042 7.97029 4.82718L7.98703 4.82997Z" fill="#200E32"/>
</svg>
