<svg width="43" height="30" viewBox="0 0 43 30" fill="none" xmlns="http://www.w3.org/2000/svg">
<path d="M30.7999 0.299979C32.8999 0.299979 34.8999 0.799979 36.5999 1.79998C40.3999 3.79998 42.8999 7.89998 42.8999 12.5L42.8999 15C42.8999 16.7 41.4999 18.2 39.6999 18.2C37.8999 18.2 36.4999 16.8 36.4999 15L36.4999 12.5C36.4999 8.99998 33.2999 6.09998 29.6999 6.69998C26.7999 7.19998 24.7999 9.89998 24.7999 12.8L24.7999 19C24.7999 20.8 23.3999 22.2 21.5999 22.2C19.7999 22.2 18.3999 20.8 18.3999 19L18.3999 13.8C18.3999 10.9 16.3999 8.19998 13.5999 7.69998C9.9999 7.09998 6.7999 9.89998 6.7999 13.4L6.7999 22.8L28.5999 22.8C30.2999 22.8 31.7999 24.2 31.7999 26C31.7999 27.8 30.3999 29.2 28.5999 29.2L3.5999 29.2C1.8999 29.2 0.399902 27.8 0.399902 26L0.399902 13.5C0.399901 8.89998 2.9999 4.89998 6.7999 2.79998C8.4999 1.79998 10.4999 1.29998 12.5999 1.29998C14.6999 1.29998 16.6999 1.79998 18.3999 2.79998C19.3999 3.29998 20.2999 3.99998 21.0999 4.79998C22.0999 3.59998 23.2999 2.59998 24.6999 1.79998C26.6999 0.899979 28.6999 0.299979 30.7999 0.299979Z" fill="url(#paint0_linear_8_2555)"/>
<path d="M42.9999 26C42.9999 24.2327 41.5672 22.8 39.7999 22.8C38.0325 22.8 36.5999 24.2327 36.5999 26C36.5999 27.7673 38.0325 29.2 39.7999 29.2C41.5672 29.2 42.9999 27.7673 42.9999 26Z" fill="url(#paint1_linear_8_2555)"/>
<path d="M31.9 26C31.9 27.7 30.5 29.2 28.7 29.2L3.7 29.2C2 29.2 0.5 27.8 0.5 26C0.5 24.3 1.9 22.8 3.7 22.8L28.7 22.8C30.5 22.9 31.9 24.3 31.9 26Z" fill="url(#paint2_linear_8_2555)"/>
<path d="M27.1 26C27.1 27.7 25.7 29.2 23.9 29.2L3.7 29.2C2 29.2 0.5 27.8 0.5 26C0.5 24.3 1.9 22.8 3.7 22.8L23.9 22.8C25.7 22.9 27.1 24.3 27.1 26Z" fill="url(#paint3_linear_8_2555)"/>
<path d="M21.4 26C21.4 27.7 20 29.2 18.2 29.2L3.7 29.2C2 29.2 0.5 27.8 0.5 26C0.5 24.3 1.9 22.8 3.7 22.8L18.2 22.8C20 22.9 21.4 24.3 21.4 26Z" fill="#B61AC7"/>
<path d="M16.2 26C16.2 27.7 14.8 29.2 13 29.2L3.7 29.2C2 29.2 0.5 27.8 0.5 26C0.5 24.3 1.9 22.8 3.7 22.8L13 22.8C14.8 22.9 16.2 24.3 16.2 26Z" fill="#00DEE7"/>
<path d="M3.79985 29.2C1.99985 29.2 0.599853 27.8 0.599853 26L0.599853 14.5C0.599853 12.7 1.99985 11.3 3.79985 11.3C5.59985 11.3 6.99985 12.7 6.99985 14.5L6.99985 26C6.89986 27.8 5.49986 29.2 3.79985 29.2Z" fill="url(#paint4_linear_8_2555)"/>
<path d="M3.79985 29.2C1.99985 29.2 0.599853 27.8 0.599853 26L0.599853 19.2C0.599853 17.4 1.99985 16 3.79985 16C5.59985 16 6.99985 17.4 6.99985 19.2L6.99985 26C6.89986 27.8 5.49986 29.2 3.79985 29.2Z" fill="url(#paint5_linear_8_2555)"/>
<path d="M3.7 20.7C5.1 20.7 6.3 21.6 6.7 22.8L8.6 22.8C10.3 22.8 11.8 24.2 11.8 26C11.8 27.8 10.4 29.2 8.6 29.2L3.7 29.2C2 29.2 0.5 27.8 0.5 26L0.5 23.9C0.6 22.2 2 20.7 3.7 20.7Z" fill="url(#paint6_linear_8_2555)"/>
<path d="M7.8999 26.4C7.8999 26.6 7.6999 26.8 7.4999 26.8L4.4999 26.8C3.8999 26.8 3.3999 26.3 3.3999 25.7L3.3999 23.6C3.3999 23.4 3.5999 23.2 3.7999 23.2C3.9999 23.2 4.0999 23.4 4.0999 23.6L4.0999 25.5C4.0999 25.8 4.3999 26 4.6999 26L7.4999 26C7.6999 26 7.8999 26.2 7.8999 26.4Z" fill="white"/>
<path d="M10.5999 26.1L10.5999 26.6C10.5999 26.7 10.5999 26.7 10.4999 26.7L8.69985 26.7C8.59985 26.7 8.59985 26.7 8.59985 26.6L8.59985 26.1C8.59985 26 8.59985 26 8.69985 26L10.4999 26C10.5999 26 10.5999 26.1 10.5999 26.1Z" fill="white"/>
<path d="M30.6999 0.299957L30.6999 6.59996C27.4999 6.59996 24.9999 9.19996 24.9999 12.4L24.9999 12.8C24.9999 14.5 23.5999 16 21.7999 16C19.9999 16 18.5999 14.6 18.5999 12.8L18.5999 12.4C18.5999 12.1 18.5999 11.9 18.5999 11.7C18.9999 5.39996 24.2999 0.299957 30.6999 0.299957Z" fill="url(#paint7_linear_8_2555)"/>
<path d="M30.8 0.299995C25.6 0.299995 21.2 3.5 19.5 8.1C18.7 10.2 20.3 12.4 22.5 12.4L22.8 12.4C24 12.4 25 11.5 25.5 10.4C26.3 8.19999 28.4 6.7 30.9 6.7C33.4 6.7 35.5 8.19999 36.3 10.4C36.7 11.5 37.7 12.4 38.9 12.4L39.3 12.4C41.4 12.4 43 10.3 42.2 8.29999C40.5 3.59999 36 0.299995 30.8 0.299995Z" fill="url(#paint8_linear_8_2555)"/>
<path d="M30.7999 0.299985C27.8999 0.299986 25.1999 1.29999 23.0999 2.99999C21.1999 4.49999 21.4999 7.39998 23.5999 8.59998L23.6999 8.59998C24.7999 9.19998 26.0999 8.89998 26.9999 7.99998C27.9999 7.09998 29.3999 6.49998 30.7999 6.49998C32.2999 6.49998 33.5999 6.99999 34.5999 7.89999C35.4999 8.69999 36.6999 8.99998 37.7999 8.39998L37.9999 8.29998C39.9999 7.09998 40.1999 4.29999 38.3999 2.89999C36.2999 1.29999 33.6999 0.299985 30.7999 0.299985Z" fill="url(#paint9_linear_8_2555)"/>
<path d="M30.7 0.299935C29.2 0.299935 27.8 0.599935 26.5 0.999936C24.6 1.69994 24 4.19994 25.3 5.79994C26.1 6.79994 27.5 7.29994 28.7 6.89994C29.3 6.69994 30 6.59994 30.7 6.59994C31.4 6.59994 32.1 6.69994 32.7 6.89994C33.9 7.29994 35.3 6.79994 36.1 5.79994C37.4 4.19994 36.9 1.69994 34.9 0.999935C33.7 0.599935 32.2 0.299935 30.7 0.299935Z" fill="url(#paint10_linear_8_2555)"/>
<path d="M33.9999 3.49998C33.9999 1.73267 32.5672 0.299984 30.7999 0.299984C29.0325 0.299984 27.5999 1.73267 27.5999 3.49998C27.5999 5.26729 29.0325 6.69998 30.7999 6.69998C32.5672 6.69998 33.9999 5.26729 33.9999 3.49998Z" fill="url(#paint11_linear_8_2555)"/>
<path d="M33 2.5C33 1.94771 32.7761 1.5 32.5 1.5C32.2239 1.5 32 1.94771 32 2.5C32 3.05228 32.2239 3.5 32.5 3.5C32.7761 3.5 33 3.05228 33 2.5Z" fill="white"/>
<path d="M32.3999 5.19999C32.3999 4.92385 32.176 4.69999 31.8999 4.69999C31.6238 4.69999 31.3999 4.92385 31.3999 5.19999C31.3999 5.47613 31.6238 5.69998 31.8999 5.69998C32.176 5.69998 32.3999 5.47613 32.3999 5.19999Z" fill="white"/>
<defs>
<linearGradient id="paint0_linear_8_2555" x1="21.7568" y1="29.1979" x2="21.7568" y2="0.33978" gradientUnits="userSpaceOnUse">
<stop stop-color="#1553FF"/>
<stop offset="0.1139" stop-color="#145CFF"/>
<stop offset="0.304" stop-color="#1176FF"/>
<stop offset="0.5466" stop-color="#0CA0FF"/>
<stop offset="0.8294" stop-color="#05D9FF"/>
<stop offset="1" stop-color="#00FFFF"/>
</linearGradient>
<linearGradient id="paint1_linear_8_2555" x1="39.772" y1="29.1979" x2="39.772" y2="22.8757" gradientUnits="userSpaceOnUse">
<stop stop-color="#1553FF"/>
<stop offset="0.1139" stop-color="#145CFF"/>
<stop offset="0.304" stop-color="#1176FF"/>
<stop offset="0.5466" stop-color="#0CA0FF"/>
<stop offset="0.8294" stop-color="#05D9FF"/>
<stop offset="1" stop-color="#00FFFF"/>
</linearGradient>
<linearGradient id="paint2_linear_8_2555" x1="0.5807" y1="26.0367" x2="31.8862" y2="26.0367" gradientUnits="userSpaceOnUse">
<stop stop-color="#B61AC7"/>
<stop offset="0.4845" stop-color="#B419C8"/>
<stop offset="0.6591" stop-color="#AD17CD"/>
<stop offset="0.7835" stop-color="#A214D5"/>
<stop offset="0.884" stop-color="#910FE1"/>
<stop offset="0.9692" stop-color="#7B08F0"/>
<stop offset="1" stop-color="#7105F7"/>
</linearGradient>
<linearGradient id="paint3_linear_8_2555" x1="0.5806" y1="26.0367" x2="27.0912" y2="26.0367" gradientUnits="userSpaceOnUse">
<stop stop-color="#4E0D38"/>
<stop offset="0.2198" stop-color="#510E3A"/>
<stop offset="0.4003" stop-color="#5B1041"/>
<stop offset="0.5669" stop-color="#6D134C"/>
<stop offset="0.7253" stop-color="#85175B"/>
<stop offset="0.8762" stop-color="#A41D6F"/>
<stop offset="1" stop-color="#C32383"/>
</linearGradient>
<linearGradient id="paint4_linear_8_2555" x1="0.580553" y1="20.2811" x2="6.93696" y2="20.2811" gradientUnits="userSpaceOnUse">
<stop stop-color="#4E0D38"/>
<stop offset="1" stop-color="#C32383"/>
</linearGradient>
<linearGradient id="paint5_linear_8_2555" x1="3.75875" y1="29.1979" x2="3.75875" y2="16.0517" gradientUnits="userSpaceOnUse">
<stop stop-color="#B61AC7"/>
<stop offset="0.3495" stop-color="#B419C9"/>
<stop offset="0.5558" stop-color="#AB17CF"/>
<stop offset="0.7249" stop-color="#9D12D8"/>
<stop offset="0.8729" stop-color="#890CE6"/>
<stop offset="1" stop-color="#7105F7"/>
</linearGradient>
<linearGradient id="paint6_linear_8_2555" x1="1.2758" y1="28.037" x2="10.1451" y2="22.4949" gradientUnits="userSpaceOnUse">
<stop stop-color="#FFD25A"/>
<stop offset="1" stop-color="#F38CA3"/>
</linearGradient>
<linearGradient id="paint7_linear_8_2555" x1="18.5342" y1="8.19156" x2="30.7029" y2="8.19156" gradientUnits="userSpaceOnUse">
<stop stop-color="#4E0D38"/>
<stop offset="1" stop-color="#C32383"/>
</linearGradient>
<linearGradient id="paint8_linear_8_2555" x1="19.2185" y1="6.3561" x2="42.3657" y2="6.35609" gradientUnits="userSpaceOnUse">
<stop stop-color="#B61AC7"/>
<stop offset="1" stop-color="#7105F7"/>
</linearGradient>
<linearGradient id="paint9_linear_8_2555" x1="30.7533" y1="0.339786" x2="30.7533" y2="8.98808" gradientUnits="userSpaceOnUse">
<stop stop-color="#FFD25A"/>
<stop offset="1" stop-color="#F38CA3"/>
</linearGradient>
<linearGradient id="paint10_linear_8_2555" x1="30.7534" y1="0.339734" x2="30.7534" y2="7.17044" gradientUnits="userSpaceOnUse">
<stop stop-color="#B61AC7"/>
<stop offset="1" stop-color="#7105F7"/>
</linearGradient>
<linearGradient id="paint11_linear_8_2555" x1="28.0722" y1="5.17618" x2="33.4344" y2="1.82548" gradientUnits="userSpaceOnUse">
<stop stop-color="#4E0D38"/>
<stop offset="1" stop-color="#C32383"/>
</linearGradient>
</defs>
</svg>
