<svg width="14" height="14" viewBox="0 0 14 14" fill="none" xmlns="http://www.w3.org/2000/svg">
<path fill-rule="evenodd" clip-rule="evenodd" d="M13.4696 2.06095C13.6774 1.12384 12.8059 0.278239 11.8624 0.551303L1.42467 3.58846L1.32395 3.62195C0.34422 3.99066 0.193899 5.35516 1.11154 5.92007L5.42857 8.5773L8.02574 12.88L8.0841 12.9689C8.69293 13.8219 10.0411 13.6152 10.3485 12.5813L13.4452 2.15492L13.4696 2.06095ZM12.1897 1.50207C12.3822 1.4814 12.5467 1.66866 12.4868 1.86974L9.3899 12.2964L9.36959 12.3475C9.2728 12.5379 8.99894 12.5572 8.88191 12.3633L6.42324 8.29064L9.9249 4.76642L9.97313 4.71018C10.1177 4.51395 10.1006 4.23623 9.92255 4.05931L9.86631 4.01109C9.67008 3.86651 9.39236 3.88357 9.21544 4.06167L5.71857 7.5813L1.63575 5.06847L1.59166 5.03537C1.43311 4.89093 1.48648 4.61179 1.70374 4.54873L12.1411 1.51168L12.1897 1.50207Z" fill="white"/>
</svg>
