<svg xmlns="http://www.w3.org/2000/svg" width="24" height="24" viewBox="0 0 24 24" fill="none">
<path d="M12 1.07747V0L8.39535 2.61886L12 5.23767V4.1602C16.6199 4.1602 20.3785 7.91878 20.3785 12.5387C20.3785 17.1586 16.6199 20.9173 12 20.9173C7.38004 20.9173 3.62146 17.1587 3.62146 12.5387H0.538727C0.538727 18.8686 5.67013 24 12 24C18.3299 24 23.4613 18.8686 23.4613 12.5387C23.4613 6.20888 18.3299 1.07747 12 1.07747V1.07747Z" fill="#FF9368"/>
<path d="M12 17.74C9.13211 17.74 6.79895 15.4068 6.79895 12.539C6.79895 9.6711 9.13211 7.33789 12 7.33789C14.8679 7.33789 17.2011 9.6711 17.2011 12.539C17.2011 15.4068 14.8679 17.74 12 17.74Z" fill="#F9EBD7"/>
<path d="M12 17.74C12 13.7623 12 9.93974 12 7.33789C14.8679 7.33789 17.2011 9.6711 17.2011 12.539C17.2011 15.4068 14.8679 17.74 12 17.74Z" fill="#F3D6AE"/>
<path d="M12.8458 14.5045L11.2969 13.2639V10.6743H12.7031V12.5885L13.7249 13.4069L12.8458 14.5045Z" fill="#FF0000"/>
<path d="M12 1.07747V0V5.23767V4.1602C16.6199 4.1602 20.3785 7.91878 20.3785 12.5387C20.3785 17.1586 16.6199 20.9173 12 20.9173V24C18.3298 24 23.4612 18.8686 23.4612 12.5387C23.4612 6.20888 18.3299 1.07747 12 1.07747V1.07747Z" fill="#FF641A"/>
</svg>